:SAMPLES-PER-SECOND 30
:FULLY-SPECIFIED
:DEGREES
525
root  -1.59069 32.1929 -5.55271 105.238 8.74611 90.9271
Spine  -6.44692 -14.1883 -6.93081
Spine1  -4.65844 23.0862 0.765915
Neck  3.97569e-016 0 -2.38542e-015
Head  13.3214 -8.49235 14.3357
R_Clavicle  0.416004 -21.3593 1.31371
R_UpperArm  38.8554 -5.18797 38.9487
R_Forearm  -0.565414 -45.2558 30.0233
R_Hand  -0.414171 9.05634 -14.8202
L_Clavicle  -0.466209 16.2856 -1.92274
L_UpperArm  -10.7522 1.04902 -0.251935
L_Forearm  -2.50689 22.8517 29.1165
L_Hand  -0.132983 -0.86387 -3.26474
L_Thigh  1.07455 1.07689 -24.6627
L_Calf  0.668747 -3.47785 26.0366
L_Foot  7.8552 9.66696 18.2918
L_Toe0  0.498402 0.0362489 -6.26097
R_Thigh  16.6269 -4.62059 -3.52762
R_Calf  9.18444 17.348 40.5442
R_Foot  1.8836 -4.97438 -21.3048
R_Toe0  -1.79035 -0.27277 -17.3237
526
root  -1.46158 31.9615 -7.09434 105.274 8.82293 93.2238
Spine  -6.17219 -14.131 -3.77601
Spine1  -4.16994 19.1769 0.382983
Neck  3.97569e-016 0 -2.38542e-015
Head  12.5334 -7.45543 12.9402
R_Clavicle  0.408116 -20.872 1.00509
R_UpperArm  40.6027 -7.12853 36.7607
R_Forearm  -0.686354 -45.0295 31.132
R_Hand  -0.533275 9.73208 -15.8921
L_Clavicle  -0.37168 14.2308 -1.81858
L_UpperArm  -10.5915 0.0806676 -2.8066
L_Forearm  -3.63049 22.1209 27.9905
L_Hand  -0.118919 -0.401998 -2.62588
L_Thigh  0.950691 -2.60595 -21.1476
L_Calf  0.762352 -2.86182 21.2697
L_Foot  8.31583 10.5894 18.5551
L_Toe0  0.505156 0.0375911 -6.13607
R_Thigh  24.2789 -8.30294 -0.688693
R_Calf  -2.93864 12.0935 36.3858
R_Foot  2.36887 2.27334 -18.919
R_Toe0  -1.7894 -0.27278 -17.3236
527
root  -1.38707 31.6481 -8.4697 104.782 9.61071 94.3052
Spine  -5.28418 -10.1319 -1.81277
Spine1  -3.47362 11.8272 1.83928
Neck  3.97569e-016 0 -2.38542e-015
Head  10.5125 -6.08548 11.4664
R_Clavicle  0.411602 -21.5065 0.510654
R_UpperArm  40.7191 -8.34666 35.1585
R_Forearm  1.99087 -43.9165 29.7272
R_Hand  -0.745069 9.42544 -17.2813
L_Clavicle  -0.327509 13.1565 -1.65801
L_UpperArm  -7.11327 -2.94674 -5.36923
L_Forearm  -5.95083 21.473 27.0114
L_Hand  -0.0944893 0.276679 -1.82095
L_Thigh  0.348449 -4.77952 -18.0248
L_Calf  0.35823 -2.23765 16.5602
L_Foot  8.69711 11.099 19.0801
L_Toe0  0.505156 0.0394873 -6.13605
R_Thigh  21.4321 -9.67821 1.30942
R_Calf  -4.57434 8.99696 29.8572
R_Foot  2.89353 7.55415 -16.7415
R_Toe0  -1.78871 -0.272787 -17.3235
528
root  -1.36873 31.311 -9.6508 104.044 10.6897 94.7251
Spine  -3.92688 -5.29705 -2.12025
Spine1  -2.56919 4.16444 6.9886
Neck  3.97569e-016 0 -2.38542e-015
Head  8.16943 -4.74851 8.78132
R_Clavicle  0.411199 -21.6741 -0.165617
R_UpperArm  39.7932 -8.14815 32.4346
R_Forearm  4.46941 -43.1777 27.8262
R_Hand  -1.02945 8.22476 -19.1518
L_Clavicle  -0.294863 12.6264 -1.9748
L_UpperArm  -2.44899 -7.52605 -8.10085
L_Forearm  -7.30712 21.0645 26.4029
L_Hand  -0.0932332 0.719153 -1.64762
L_Thigh  -0.905869 -5.82856 -15.3784
L_Calf  -0.243152 -1.67054 12.4327
L_Foot  8.94123 11.3386 19.5141
L_Toe0  0.505156 0.0408843 -6.13604
R_Thigh  16.1515 -9.62185 3.66529
R_Calf  -2.97395 5.73496 18.091
R_Foot  2.43448 5.45286 -13.7417
R_Toe0  -1.7648 -0.273801 -17.3444
529
root  -1.38923 31.0367 -10.7062 103.058 11.5354 95.3452
Spine  -2.6059 -2.73455 -3.35494
Spine1  -1.8558 -0.913706 12.8583
Neck  3.97569e-016 0 -2.38542e-015
Head  6.38715 -3.94703 6.32361
R_Clavicle  0.369726 -20.184 -0.6338
R_UpperArm  38.413 -7.38208 28.3627
R_Forearm  4.40479 -43.3187 26.5858
R_Hand  -1.29974 7.09615 -21.2408
L_Clavicle  -0.274422 12.6271 -2.63897
L_UpperArm  1.53651 -11.4809 -9.70095
L_Forearm  -6.51809 20.9971 26.3033
L_Hand  -0.119604 0.582901 -2.16772
L_Thigh  -2.84337 -6.66055 -13.3162
L_Calf  -0.361852 -1.2816 9.73649
L_Foot  9.11111 11.8626 19.3754
L_Toe0  0.505156 0.0418302 -6.13603
R_Thigh  12.4499 -9.22034 4.50198
R_Calf  -2.09649 2.15611 6.66229
R_Foot  2.06507 4.21019 -11.4098
R_Toe0  -2.04271 -0.263355 -17.1492
530
root  -1.44912 30.9015 -11.7069 101.929 11.9817 95.9827
Spine  -1.47971 -2.48476 -4.14285
Spine1  -1.15885 -2.93313 16.0206
Neck  3.97569e-016 0 -2.38542e-015
Head  5.57448 -3.72288 5.87407
R_Clavicle  0.328145 -18.4427 -0.534931
R_UpperArm  36.8282 -6.33304 24.6966
R_Forearm  1.74256 -43.985 25.9957
R_Hand  -1.48875 6.67332 -22.8598
L_Clavicle  -0.340566 13.9973 -3.02168
L_UpperArm  4.55447 -13.172 -8.85344
L_Forearm  -4.47077 21.4178 26.929
L_Hand  -0.138799 -0.0916011 -2.87576
L_Thigh  -4.96154 -7.30138 -11.5427
L_Calf  0.100789 -1.1133 8.66389
L_Foot  9.16268 12.8341 18.3703
L_Toe0  0.505156 0.0423727 -6.13603
R_Thigh  10.0961 -8.77224 3.57651
R_Calf  -2.1352 -0.8357 -2.62907
R_Foot  1.91856 4.26059 -9.29122
R_Toe0  -2.51025 -0.230074 -16.3276
531
root  -1.54365 30.9285 -12.6469 100.88 11.9592 95.9903
Spine  -0.629444 -2.55355 -4.74867
Spine1  -0.574666 -3.42958 16.2174
Neck  3.97569e-016 0 -2.38542e-015
Head  5.42339 -3.62157 7.63901
R_Clavicle  0.32835 -17.9316 -0.219111
R_UpperArm  36.0725 -5.31233 22.6517
R_Forearm  -1.81718 -44.3319 25.9129
R_Hand  -1.55706 6.84734 -23.4203
L_Clavicle  -0.466266 16.2432 -2.91009
L_UpperArm  6.23022 -12.0673 -5.5323
L_Forearm  -3.00627 22.5163 28.6013
L_Hand  -0.127376 -0.956555 -3.20639
L_Thigh  -6.67737 -7.36705 -9.75062
L_Calf  0.457555 -1.14192 8.95843
L_Foot  8.94184 13.8641 16.5722
L_Toe0  0.505156 0.0425599 -6.13603
R_Thigh  9.34654 -7.92502 1.04301
R_Calf  -1.45228 -2.8762 -8.99332
R_Foot  1.72473 3.69365 -8.27369
R_Toe0  -0.11134 -0.273622 -15.9626
532
root  -1.64471 31.1102 -13.5139 99.8382 11.517 95.4382
Spine  0.00330452 -1.822 -5.91838
Spine1  -0.311988 -3.9581 15.0491
Neck  3.97569e-016 0 -2.38542e-015
Head  5.44663 -3.24003 10.9436
R_Clavicle  0.33527 -18.1518 -0.161247
R_UpperArm  36.8459 -5.01561 21.8477
R_Forearm  -3.50736 -43.8015 26.0384
R_Hand  -1.51793 7.36137 -22.9954
L_Clavicle  -0.542117 17.6182 -2.85416
L_UpperArm  5.97234 -8.45462 -0.482126
L_Forearm  -3.56964 24.2808 31.5272
L_Hand  -0.0903516 -1.69618 -2.79864
L_Thigh  -7.99376 -7.02193 -8.12949
L_Calf  0.404584 -1.35663 10.5725
L_Foot  8.42055 14.8078 14.0988
L_Toe0  0.505156 0.0424396 -6.13603
R_Thigh  9.64103 -6.7707 -2.90343
R_Calf  0.0248622 -3.78035 -11.8556
R_Foot  1.62281 3.03553 -8.75959
R_Toe0  2.26849 -0.370018 -15.0498
533
root  -1.7332 31.4147 -14.3325 98.4828 11.0649 94.8444
Spine  0.603204 -0.771654 -7.52208
Spine1  -0.125937 -4.6729 13.5197
Neck  3.97569e-016 0 -2.38542e-015
Head  5.70005 -2.73547 15.2722
R_Clavicle  0.334658 -18.2058 -0.208239
R_UpperArm  38.0933 -5.24039 21.3185
R_Forearm  -1.89849 -42.8141 25.9376
R_Hand  -1.44596 7.98609 -22.3557
L_Clavicle  -0.571271 18.0164 -3.21676
L_UpperArm  2.87393 -3.64853 5.52213
L_Forearm  -4.90234 27.2909 34.9621
L_Hand  -0.0437027 -2.19188 -1.69092
L_Thigh  -9.29006 -6.60637 -7.21111
L_Calf  0.516983 -1.75121 13.5234
L_Foot  7.69053 15.925 10.963
L_Toe0  0.505156 0.0420598 -6.13603
R_Thigh  9.88097 -5.70858 -8.07568
R_Calf  0.823081 -3.5469 -11.1254
R_Foot  1.62633 2.76857 -9.4581
R_Toe0  3.98635 -0.513977 -14.061
534
root  -1.81776 31.7281 -15.1222 96.838 10.9823 94.4791
Spine  1.20077 -0.113962 -8.93083
Spine1  0.219112 -4.9806 11.7292
Neck  3.97569e-016 0 -2.38542e-015
Head  6.3986 -2.49554 20.1173
R_Clavicle  0.341668 -18.1434 0.0113771
R_UpperArm  38.4516 -5.11214 20.578
R_Forearm  1.34926 -42.0808 25.4696
R_Hand  -1.41823 8.31884 -22.1159
L_Clavicle  -0.62297 18.7085 -3.6386
L_UpperArm  -7.00064 0.644707 11.867
L_Forearm  -0.758105 33.5304 37.4299
L_Hand  -0.00164282 -2.51927 -0.355172
L_Thigh  -10.8427 -6.16623 -7.03118
L_Calf  1.1817 -2.2048 16.9409
L_Foot  6.9207 17.1486 7.73842
L_Toe0  0.505156 0.0414683 -6.13604
R_Thigh  9.97618 -5.11128 -14.083
R_Calf  0.995708 -2.42338 -7.59488
R_Foot  1.52368 2.13696 -9.73918
R_Toe0  6.38744 -0.877225 -12.4034
